<?xml version="1.0" encoding="UTF-8"?>
<svg width="85px" height="106px" viewBox="0 0 85 106" version="1.1" xmlns="http://www.w3.org/2000/svg" xmlns:xlink="http://www.w3.org/1999/xlink">
    <!-- Generator: Sketch 43.2 (39069) - http://www.bohemiancoding.com/sketch -->
    <title>Meeting-Point-Pin Copy</title>
    <desc>Created with Sketch.</desc>
    <defs></defs>
    <g id="Symbols" stroke="none" stroke-width="1" fill="none" fill-rule="evenodd">
        <g id="Meeting-Point-Pin-Copy">
            <path d="M43.245614,106 L23.8596491,46.0869565 L62.6315789,46.0869565 L43.245614,106 Z M0,4.00929315 C0,1.79502169 1.79495748,0 3.99989145,0 L81.0001086,0 C83.2091876,0 85,1.79251857 85,4.00929315 L85,42.0776634 C85,44.2919348 83.2050425,46.0869565 81.0001086,46.0869565 L3.99989145,46.0869565 C1.7908124,46.0869565 0,44.294438 0,42.0776634 L0,4.00929315 Z" id="Combined-Shape" fill="#10AE43"></path>
            <rect id="Rectangle-4" fill="#FFFFFF" x="4" y="4" width="76.0526316" height="36.8695652" rx="4"></rect>
            <path d="M7,27.6005859 L7,14 L11.1098633,14 L13.5776367,23.2773438 L16.0175781,14 L20.1367188,14 L20.1367188,27.6005859 L17.5854492,27.6005859 L17.5854492,16.8945312 L14.8857422,27.6005859 L12.2416992,27.6005859 L9.55126953,16.8945312 L9.55126953,27.6005859 L7,27.6005859 Z M28.5512695,24.4648438 L31.1489258,24.9008789 C30.8149397,25.8533576 30.2876826,26.5785294 29.5671387,27.076416 C28.8465947,27.5743026 27.9451552,27.8232422 26.862793,27.8232422 C25.1495683,27.8232422 23.8816773,27.2635147 23.059082,26.144043 C22.4096647,25.2472286 22.0849609,24.115404 22.0849609,22.7485352 C22.0849609,21.1157145 22.5117145,19.8370001 23.3652344,18.9123535 C24.2187543,17.987707 25.2980078,17.5253906 26.6030273,17.5253906 C28.068855,17.5253906 29.2254189,18.0093539 30.0727539,18.9772949 C30.9200889,19.945236 31.3251955,21.4280499 31.2880859,23.4257812 L24.7568359,23.4257812 C24.7753907,24.1988971 24.9856751,24.8003722 25.3876953,25.2302246 C25.7897156,25.660077 26.2906871,25.875 26.890625,25.875 C27.2988302,25.875 27.6420885,25.763673 27.9204102,25.5410156 C28.1987319,25.3183583 28.4090162,24.9596379 28.5512695,24.4648438 Z M28.699707,21.8300781 C28.6811523,21.0755171 28.48633,20.5018737 28.1152344,20.1091309 C27.7441388,19.716388 27.2926459,19.5200195 26.7607422,19.5200195 C26.1917289,19.5200195 25.7216815,19.7272115 25.3505859,20.1416016 C24.9794903,20.5559917 24.7970377,21.1188115 24.8032227,21.8300781 L28.699707,21.8300781 Z M39.1181641,24.4648438 L41.7158203,24.9008789 C41.3818343,25.8533576 40.8545772,26.5785294 40.1340332,27.076416 C39.4134892,27.5743026 38.5120497,27.8232422 37.4296875,27.8232422 C35.7164628,27.8232422 34.4485718,27.2635147 33.6259766,26.144043 C32.9765593,25.2472286 32.6518555,24.115404 32.6518555,22.7485352 C32.6518555,21.1157145 33.078609,19.8370001 33.9321289,18.9123535 C34.7856488,17.987707 35.8649023,17.5253906 37.1699219,17.5253906 C38.6357495,17.5253906 39.7923135,18.0093539 40.6396484,18.9772949 C41.4869834,19.945236 41.89209,21.4280499 41.8549805,23.4257812 L35.3237305,23.4257812 C35.3422852,24.1988971 35.5525696,24.8003722 35.9545898,25.2302246 C36.3566101,25.660077 36.8575816,25.875 37.4575195,25.875 C37.8657247,25.875 38.208983,25.763673 38.4873047,25.5410156 C38.7656264,25.3183583 38.9759107,24.9596379 39.1181641,24.4648438 Z M39.2666016,21.8300781 C39.2480468,21.0755171 39.0532245,20.5018737 38.6821289,20.1091309 C38.3110333,19.716388 37.8595404,19.5200195 37.3276367,19.5200195 C36.7586235,19.5200195 36.2885761,19.7272115 35.9174805,20.1416016 C35.5463849,20.5559917 35.3639323,21.1188115 35.3701172,21.8300781 L39.2666016,21.8300781 Z M48.4975586,17.7480469 L48.4975586,19.8261719 L46.7163086,19.8261719 L46.7163086,23.796875 C46.7163086,24.6009155 46.7333169,25.0694167 46.767334,25.2023926 C46.8013511,25.3353685 46.8786615,25.4451493 46.9992676,25.5317383 C47.1198736,25.6183273 47.2667635,25.6616211 47.4399414,25.6616211 C47.6811535,25.6616211 48.0305967,25.5781258 48.4882812,25.4111328 L48.7109375,27.4335938 C48.1048147,27.6933607 47.4182981,27.8232422 46.6513672,27.8232422 C46.1813128,27.8232422 45.7576516,27.7443856 45.3803711,27.5866699 C45.0030906,27.4289543 44.7263192,27.2248548 44.5500488,26.9743652 C44.3737784,26.7238757 44.2516279,26.385256 44.1835938,25.9584961 C44.1279294,25.6554347 44.1000977,25.0431361 44.1000977,24.121582 L44.1000977,19.8261719 L42.9033203,19.8261719 L42.9033203,17.7480469 L44.1000977,17.7480469 L44.1000977,15.7905273 L46.7163086,14.269043 L46.7163086,17.7480469 L48.4975586,17.7480469 Z M50.3066406,16.4121094 L50.3066406,14 L52.9135742,14 L52.9135742,16.4121094 L50.3066406,16.4121094 Z M50.3066406,27.6005859 L50.3066406,17.7480469 L52.9135742,17.7480469 L52.9135742,27.6005859 L50.3066406,27.6005859 Z M64.5473633,27.6005859 L61.9404297,27.6005859 L61.9404297,22.5722656 C61.9404297,21.5084582 61.8847662,20.8203954 61.7734375,20.5080566 C61.6621088,20.1957178 61.4812024,19.9529631 61.2307129,19.7797852 C60.9802234,19.6066072 60.6787127,19.5200195 60.3261719,19.5200195 C59.8746722,19.5200195 59.4695656,19.6437162 59.1108398,19.8911133 C58.7521141,20.1385104 58.5062669,20.4663066 58.373291,20.8745117 C58.2403151,21.2827169 58.1738281,22.0372666 58.1738281,23.1381836 L58.1738281,27.6005859 L55.5668945,27.6005859 L55.5668945,17.7480469 L57.9882812,17.7480469 L57.9882812,19.1953125 C58.8479861,18.0820257 59.930332,17.5253906 61.2353516,17.5253906 C61.8105498,17.5253906 62.3362606,17.6289866 62.8125,17.8361816 C63.2887394,18.0433767 63.6490059,18.3077783 63.8933105,18.6293945 C64.1376152,18.9510107 64.3076981,19.3159159 64.4035645,19.7241211 C64.4994308,20.1323263 64.5473633,20.7167931 64.5473633,21.4775391 L64.5473633,27.6005859 Z M66.9501953,28.25 L69.9282227,28.6118164 C69.9777021,28.9581723 70.0921215,29.1962884 70.2714844,29.3261719 C70.5188814,29.5117197 70.908526,29.6044922 71.4404297,29.6044922 C72.1207716,29.6044922 72.6310204,29.5024424 72.9711914,29.2983398 C73.2000337,29.1622715 73.373209,28.9427098 73.4907227,28.6396484 C73.5711267,28.423176 73.6113281,28.0242542 73.6113281,27.4428711 L73.6113281,26.0048828 C72.8320274,27.0686902 71.8486387,27.6005859 70.6611328,27.6005859 C69.3375585,27.6005859 68.2892291,27.0408585 67.5161133,25.9213867 C66.9099905,25.0369422 66.6069336,23.9360417 66.6069336,22.6186523 C66.6069336,20.9672769 67.0043092,19.7055708 67.7990723,18.8334961 C68.5938354,17.9614214 69.5818626,17.5253906 70.7631836,17.5253906 C71.9816142,17.5253906 72.9866497,18.0603788 73.7783203,19.1303711 L73.7783203,17.7480469 L76.2182617,17.7480469 L76.2182617,26.5893555 C76.2182617,27.7521217 76.1223968,28.6210909 75.9306641,29.1962891 C75.7389313,29.7714873 75.4698911,30.2229801 75.1235352,30.5507812 C74.7771793,30.8785824 74.3148629,31.135253 73.7365723,31.3208008 C73.1582816,31.5063486 72.426925,31.5991211 71.5424805,31.5991211 C69.8725502,31.5991211 68.6881545,31.3130725 67.9892578,30.7409668 C67.2903611,30.1688611 66.940918,29.4436893 66.940918,28.5654297 C66.940918,28.4788407 66.9440104,28.3736985 66.9501953,28.25 Z M69.2788086,22.4702148 C69.2788086,23.5154675 69.4813619,24.2808407 69.8864746,24.7663574 C70.2915873,25.2518742 70.7910127,25.4946289 71.3847656,25.4946289 C72.0218131,25.4946289 72.5598936,25.2456893 72.9990234,24.7478027 C73.4381532,24.2499161 73.6577148,23.5123747 73.6577148,22.5351562 C73.6577148,21.5146433 73.4474305,20.7570012 73.0268555,20.262207 C72.6062804,19.7674129 72.0743847,19.5200195 71.4311523,19.5200195 C70.8064747,19.5200195 70.2915873,19.7627743 69.8864746,20.248291 C69.4813619,20.7338078 69.2788086,21.4744416 69.2788086,22.4702148 Z" id="Meeting" fill="#000000"></path>
        </g>
    </g>
</svg>