<?xml version="1.0" encoding="UTF-8"?>
<svg width="57px" height="71px" viewBox="0 0 57 71" version="1.1" xmlns="http://www.w3.org/2000/svg" xmlns:xlink="http://www.w3.org/1999/xlink">
    <!-- Generator: Sketch 43.2 (39069) - http://www.bohemiancoding.com/sketch -->
    <title>Self-Pin</title>
    <desc>Created with Sketch.</desc>
    <defs></defs>
    <g id="Symbols" stroke="none" stroke-width="1" fill="none" fill-rule="evenodd">
        <g id="Self-Pin">
            <g id="Pin-With-Initials">
                <path d="M29,71 L16,30.8695652 L42,30.8695652 L29,71 Z M0,4.0040096 C0,1.79265616 1.80003915,0 4.00812931,0 L52.9918707,0 C55.2054994,0 57,1.79310775 57,4.0040096 L57,26.8655556 C57,29.0769091 55.1999609,30.8695652 52.9918707,30.8695652 L4.00812931,30.8695652 C1.79450062,30.8695652 0,29.0764575 0,26.8655556 L0,4.0040096 Z" id="Combined-Shape" fill="#EA1717"></path>
                <rect id="Rectangle-4" fill="#FFFFFF" x="3" y="3.08695652" width="51" height="24.6956522" rx="4"></rect>
                <path d="M13.2441406,23.2144758 L13.2441406,17.0144361 L8,8.48310122 L11.3886719,8.48310122 L14.7578125,14.3113394 L18.0585938,8.48310122 L21.3886719,8.48310122 L16.125,17.0345335 L16.125,23.2144758 L13.2441406,23.2144758 Z M22.2382812,15.9392267 C22.2382812,14.4386153 22.456378,13.1791925 22.8925781,12.1609205 C23.2181006,11.4106148 23.6624321,10.7373596 24.2255859,10.1411345 C24.7887398,9.54490946 25.4055956,9.10277167 26.0761719,8.81470788 C26.9681034,8.42615672 27.996739,8.23188406 29.1621094,8.23188406 C31.2714949,8.23188406 32.9593036,8.90513933 34.2255859,10.2516701 C35.4918683,11.5982008 36.125,13.4705873 36.125,15.8688859 C36.125,18.2470869 35.4967511,20.1077501 34.2402344,21.4509313 C32.9837177,22.7941124 31.304047,23.4656929 29.2011719,23.4656929 C27.072255,23.4656929 25.3795636,22.797462 24.1230469,21.46098 C22.8665302,20.124498 22.2382812,18.2839319 22.2382812,15.9392267 Z M25.2167969,15.8387398 C25.2167969,17.5068301 25.5911421,18.7712772 26.3398438,19.632119 C27.0885454,20.4929608 28.0390567,20.9233752 29.1914062,20.9233752 C30.3437558,20.9233752 31.2893843,20.4963103 32.0283203,19.6421677 C32.7672563,18.7880251 33.1367188,17.5068303 33.1367188,15.7985451 C33.1367188,14.1103573 32.7770218,12.8509345 32.0576172,12.0202389 C31.3382125,11.1895433 30.3828185,10.7742018 29.1914062,10.7742018 C27.999994,10.7742018 27.0397172,11.1945676 26.3105469,12.0353119 C25.5813766,12.8760562 25.2167969,14.1438529 25.2167969,15.8387398 Z M38.3613281,8.48310122 L41.2519531,8.48310122 L41.2519531,16.4617584 C41.2519531,17.7278992 41.2877601,18.5485338 41.359375,18.9236866 C41.4830735,19.5266108 41.7776669,20.0106177 42.2431641,20.3757218 C42.7086612,20.7408259 43.345048,20.9233752 44.1523438,20.9233752 C44.9726604,20.9233752 45.5911437,20.7508745 46.0078125,20.4058679 C46.4244813,20.0608612 46.6751298,19.6371459 46.7597656,19.134709 C46.8444015,18.6322722 46.8867188,17.7982395 46.8867188,16.6325861 L46.8867188,8.48310122 L49.7773438,8.48310122 L49.7773438,16.2205899 C49.7773438,17.9891676 49.6992195,19.2385418 49.5429688,19.96875 C49.386718,20.6989582 49.0986349,21.3152715 48.6787109,21.8177083 C48.258787,22.3201452 47.6972691,22.7204139 46.9941406,23.0185264 C46.2910121,23.3166389 45.3730525,23.4656929 44.2402344,23.4656929 C42.87304,23.4656929 41.8362666,23.3032408 41.1298828,22.9783316 C40.4234991,22.6534225 39.8652364,22.2313819 39.4550781,21.7121971 C39.0449198,21.1930124 38.7747402,20.648714 38.6445312,20.0792856 C38.4557282,19.2351917 38.3613281,17.989167 38.3613281,16.3411741 L38.3613281,8.48310122 Z" id="YOU" fill="#060606"></path>
            </g>
        </g>
    </g>
</svg>